<svg width="835" height="97" viewBox="0 0 835 97" fill="none" xmlns="http://www.w3.org/2000/svg">
<g filter="url(#filter0_d_0_1)">
<path d="M8.40412 32L4.65412 2.90909H13.4609L14.4837 20.8068H14.7109L22.3814 2.90909H29.3132L31.0746 20.8636H31.3018L38.2337 2.90909H47.0405L33.6314 32H26.0746L23.8587 15.75H23.6314L15.9609 32H8.40412ZM43.5142 32L47.1506 10.1818H54.7642L54.0824 14.3295H54.3097C54.9631 12.7955 55.7822 11.6733 56.767 10.9631C57.7519 10.2528 58.8267 9.89773 59.9915 9.89773C60.3324 9.89773 60.6591 9.92614 60.9716 9.98295C61.2936 10.0303 61.6108 10.0966 61.9233 10.1818L60.7869 16.8864C60.4176 16.7443 59.9583 16.6449 59.4091 16.5881C58.8598 16.5218 58.3722 16.4886 57.946 16.4886C57.1884 16.4886 56.4782 16.6638 55.8153 17.0142C55.1619 17.3551 54.6032 17.8381 54.1392 18.4631C53.6847 19.0786 53.3816 19.803 53.2301 20.6364L51.3551 32H43.5142ZM60.858 32L64.4943 10.1818H72.3352L68.6989 32H60.858ZM68.7557 7.90909C67.6951 7.90909 66.8381 7.55871 66.1847 6.85795C65.5313 6.14773 65.2898 5.30492 65.4602 4.32955C65.6307 3.33523 66.1515 2.49242 67.0227 1.80114C67.8939 1.10038 68.8598 0.75 69.9205 0.75C70.9905 0.75 71.8428 1.10038 72.4773 1.80114C73.1117 2.49242 73.3485 3.33523 73.1875 4.32955C73.036 5.30492 72.5246 6.14773 71.6534 6.85795C70.7917 7.55871 69.8258 7.90909 68.7557 7.90909ZM89.3416 10.1818L88.3757 15.8636H74.0007L74.9666 10.1818H89.3416ZM78.603 4.95455H86.4439L83.12 24.983C83.0727 25.286 83.0821 25.5417 83.1484 25.75C83.2147 25.9489 83.3473 26.1004 83.5462 26.2045C83.7545 26.2992 84.0291 26.3466 84.37 26.3466C84.5973 26.3466 84.8767 26.3182 85.2081 26.2614C85.5395 26.1951 85.7905 26.1477 85.9609 26.1193L86.1882 31.6307C85.7905 31.7443 85.2554 31.8722 84.5831 32.0142C83.9202 32.1657 83.1484 32.2652 82.2678 32.3125C80.4306 32.3977 78.9344 32.2036 77.7791 31.7301C76.6333 31.2566 75.8378 30.518 75.3928 29.5142C74.9571 28.5009 74.8814 27.2367 75.1655 25.7216L78.603 4.95455ZM99.0682 32.3977C96.7386 32.3977 94.8068 31.9527 93.2727 31.0625C91.7386 30.1629 90.6591 28.875 90.0341 27.1989C89.4091 25.5133 89.2955 23.4962 89.6932 21.1477C90.072 18.8939 90.8532 16.9242 92.0369 15.2386C93.2301 13.553 94.7311 12.2415 96.5398 11.304C98.358 10.3665 100.394 9.89773 102.648 9.89773C104.295 9.89773 105.74 10.1534 106.98 10.6648C108.23 11.1761 109.248 11.9195 110.034 12.8949C110.82 13.8703 111.35 15.0492 111.625 16.4318C111.909 17.8049 111.909 19.358 111.625 21.0909L111.341 22.9091H91.8523L92.5341 18.5909H104.807C104.902 17.9659 104.84 17.4167 104.622 16.9432C104.414 16.4602 104.078 16.0862 103.614 15.821C103.159 15.5464 102.61 15.4091 101.966 15.4091C101.322 15.4091 100.716 15.5464 100.148 15.821C99.589 16.0956 99.1108 16.4792 98.7131 16.9716C98.3248 17.464 98.0644 18.0417 97.9318 18.7045L97.0795 23.25C96.9659 23.9508 97.0085 24.5758 97.2074 25.125C97.4063 25.6742 97.7519 26.1051 98.2443 26.4176C98.7367 26.7301 99.3712 26.8864 100.148 26.8864C100.678 26.8864 101.18 26.8153 101.653 26.6733C102.136 26.5218 102.563 26.304 102.932 26.0199C103.311 25.7263 103.614 25.3712 103.841 24.9545H111C110.489 26.4697 109.679 27.786 108.571 28.9034C107.473 30.0114 106.118 30.8731 104.509 31.4886C102.908 32.0947 101.095 32.3977 99.0682 32.3977ZM120.975 32L124.612 10.1818H132.452L128.816 32H120.975ZM128.873 7.90909C127.812 7.90909 126.955 7.55871 126.302 6.85795C125.648 6.14773 125.407 5.30492 125.577 4.32955C125.748 3.33523 126.269 2.49242 127.14 1.80114C128.011 1.10038 128.977 0.75 130.038 0.75C131.108 0.75 131.96 1.10038 132.594 1.80114C133.229 2.49242 133.466 3.33523 133.305 4.32955C133.153 5.30492 132.642 6.14773 131.771 6.85795C130.909 7.55871 129.943 7.90909 128.873 7.90909ZM149.459 10.1818L148.493 15.8636H134.118L135.084 10.1818H149.459ZM138.72 4.95455H146.561L143.237 24.983C143.19 25.286 143.199 25.5417 143.266 25.75C143.332 25.9489 143.464 26.1004 143.663 26.2045C143.872 26.2992 144.146 26.3466 144.487 26.3466C144.714 26.3466 144.994 26.3182 145.325 26.2614C145.657 26.1951 145.908 26.1477 146.078 26.1193L146.305 31.6307C145.908 31.7443 145.373 31.8722 144.7 32.0142C144.037 32.1657 143.266 32.2652 142.385 32.3125C140.548 32.3977 139.052 32.2036 137.896 31.7301C136.75 31.2566 135.955 30.518 135.51 29.5142C135.074 28.5009 134.999 27.2367 135.283 25.7216L138.72 4.95455ZM164.86 32.2841C163.307 32.2841 161.943 31.8769 160.769 31.0625C159.604 30.2481 158.766 29.0123 158.255 27.3551C157.753 25.6979 157.71 23.6098 158.127 21.0909C158.563 18.4583 159.325 16.3182 160.414 14.6705C161.513 13.0227 162.772 11.8153 164.192 11.0483C165.622 10.2812 167.057 9.89773 168.496 9.89773C169.576 9.89773 170.49 10.0871 171.238 10.4659C171.996 10.8352 172.597 11.3324 173.042 11.9574C173.487 12.5729 173.79 13.25 173.951 13.9886H174.065L175.911 2.90909H183.752L178.923 32H171.138L171.735 28.4205H171.565C171.138 29.1591 170.594 29.822 169.931 30.4091C169.278 30.9867 168.525 31.446 167.673 31.7869C166.82 32.1184 165.883 32.2841 164.86 32.2841ZM168.752 26.2614C169.472 26.2614 170.125 26.053 170.712 25.6364C171.299 25.2102 171.797 24.6136 172.204 23.8466C172.611 23.0701 172.9 22.1515 173.07 21.0909C173.25 20.0114 173.264 19.0881 173.113 18.321C172.961 17.5445 172.658 16.9527 172.204 16.5455C171.759 16.1288 171.176 15.9205 170.457 15.9205C169.737 15.9205 169.088 16.1288 168.511 16.5455C167.933 16.9527 167.445 17.5445 167.048 18.321C166.659 19.0881 166.375 20.0114 166.195 21.0909C166.015 22.1705 165.992 23.0985 166.124 23.875C166.266 24.642 166.56 25.2339 167.005 25.6506C167.45 26.0578 168.032 26.2614 168.752 26.2614ZM193.227 32.3977C190.859 32.3977 188.908 31.929 187.374 30.9915C185.85 30.0445 184.78 28.7282 184.164 27.0426C183.549 25.3475 183.425 23.3826 183.795 21.1477C184.164 18.9129 184.936 16.9527 186.11 15.267C187.284 13.572 188.795 12.2557 190.641 11.3182C192.488 10.3712 194.6 9.89773 196.977 9.89773C199.335 9.89773 201.276 10.3712 202.8 11.3182C204.335 12.2557 205.409 13.572 206.025 15.267C206.65 16.9527 206.778 18.9129 206.408 21.1477C206.039 23.3826 205.263 25.3475 204.079 27.0426C202.895 28.7282 201.38 30.0445 199.533 30.9915C197.696 31.929 195.594 32.3977 193.227 32.3977ZM194.192 26.6023C194.874 26.6023 195.495 26.3797 196.053 25.9347C196.621 25.4896 197.104 24.8551 197.502 24.0312C197.909 23.2074 198.208 22.2273 198.397 21.0909C198.586 19.9451 198.615 18.965 198.482 18.1506C198.35 17.3267 198.075 16.6922 197.658 16.2472C197.242 15.8021 196.692 15.5795 196.011 15.5795C195.329 15.5795 194.704 15.8021 194.136 16.2472C193.567 16.6922 193.085 17.3267 192.687 18.1506C192.289 18.965 191.996 19.9451 191.806 21.0909C191.617 22.2273 191.584 23.2074 191.707 24.0312C191.839 24.8551 192.114 25.4896 192.531 25.9347C192.957 26.3797 193.511 26.6023 194.192 26.6023ZM211.245 32L209.427 10.1818H217.268L217.552 23.4773H217.722L222.722 10.1818H230.336L231.018 23.3636H231.188L235.79 10.1818H243.631L234.54 32H226.075L224.938 20.2955H224.711L219.711 32H211.245ZM252.325 19.7273L250.279 32H242.438L246.075 10.1818H253.518L252.836 14.3295H253.063C253.754 12.9375 254.763 11.8532 256.089 11.0767C257.424 10.2907 258.897 9.89773 260.506 9.89773C262.05 9.89773 263.333 10.2481 264.356 10.9489C265.379 11.6496 266.103 12.6155 266.529 13.8466C266.955 15.0777 267.031 16.4886 266.756 18.0795L264.427 32H256.586L258.631 19.7273C258.811 18.6477 258.679 17.8002 258.234 17.1847C257.798 16.5691 257.078 16.2614 256.075 16.2614C255.44 16.2614 254.858 16.4034 254.327 16.6875C253.807 16.9621 253.371 17.3598 253.021 17.8807C252.68 18.392 252.448 19.0076 252.325 19.7273ZM282.232 32.3409C280.85 32.3409 279.661 32.1136 278.667 31.6591C277.682 31.1951 276.962 30.4943 276.508 29.5568C276.063 28.6098 275.963 27.4167 276.21 25.9773C276.408 24.7841 276.782 23.7661 277.332 22.9233C277.881 22.0805 278.563 21.3892 279.377 20.8494C280.192 20.3097 281.105 19.8977 282.119 19.6136C283.141 19.3201 284.221 19.1307 285.357 19.0455C286.588 18.9508 287.587 18.8324 288.354 18.6903C289.121 18.5483 289.694 18.3542 290.073 18.108C290.452 17.8617 290.679 17.5303 290.755 17.1136V17.0568C290.84 16.4886 290.689 16.053 290.3 15.75C289.922 15.447 289.391 15.2955 288.71 15.2955C287.971 15.2955 287.332 15.4564 286.792 15.7784C286.262 16.1004 285.897 16.6023 285.698 17.2841H278.482C278.785 15.9583 279.406 14.7367 280.343 13.6193C281.29 12.4924 282.545 11.5928 284.107 10.9205C285.679 10.2386 287.554 9.89773 289.732 9.89773C291.285 9.89773 292.649 10.0824 293.823 10.4517C294.997 10.8116 295.968 11.3182 296.735 11.9716C297.512 12.6155 298.056 13.3731 298.369 14.2443C298.691 15.1061 298.766 16.0436 298.596 17.0568L296.096 32H288.766L289.278 28.9318H289.107C288.539 29.7462 287.9 30.4044 287.19 30.9062C286.489 31.4081 285.722 31.7727 284.888 32C284.065 32.2273 283.179 32.3409 282.232 32.3409ZM285.641 27.3977C286.228 27.3977 286.806 27.2746 287.374 27.0284C287.942 26.7822 288.43 26.4271 288.837 25.9631C289.245 25.4991 289.505 24.9356 289.619 24.2727L289.903 22.4545C289.694 22.5398 289.462 22.6203 289.207 22.696C288.96 22.7623 288.7 22.8286 288.425 22.8949C288.16 22.9612 287.876 23.0227 287.573 23.0795C287.28 23.1364 286.977 23.1932 286.664 23.25C286.039 23.3447 285.513 23.5009 285.087 23.7188C284.661 23.9271 284.33 24.1875 284.093 24.5C283.856 24.803 283.71 25.1439 283.653 25.5227C283.567 26.1193 283.705 26.5833 284.065 26.9148C284.434 27.2367 284.96 27.3977 285.641 27.3977ZM309.786 19.7273L307.74 32H299.899L303.536 10.1818H310.979L310.297 14.3295H310.524C311.215 12.9375 312.224 11.8532 313.55 11.0767C314.885 10.2907 316.357 9.89773 317.967 9.89773C319.511 9.89773 320.794 10.2481 321.817 10.9489C322.839 11.6496 323.564 12.6155 323.99 13.8466C324.416 15.0777 324.492 16.4886 324.217 18.0795L321.888 32H314.047L316.092 19.7273C316.272 18.6477 316.14 17.8002 315.695 17.1847C315.259 16.5691 314.539 16.2614 313.536 16.2614C312.901 16.2614 312.319 16.4034 311.788 16.6875C311.268 16.9621 310.832 17.3598 310.482 17.8807C310.141 18.392 309.909 19.0076 309.786 19.7273ZM333.571 32.2841C332.018 32.2841 330.654 31.8769 329.48 31.0625C328.315 30.2481 327.477 29.0123 326.966 27.3551C326.464 25.6979 326.421 23.6098 326.838 21.0909C327.274 18.4583 328.036 16.3182 329.125 14.6705C330.223 13.0227 331.483 11.8153 332.903 11.0483C334.333 10.2812 335.768 9.89773 337.207 9.89773C338.287 9.89773 339.201 10.0871 339.949 10.4659C340.706 10.8352 341.308 11.3324 341.753 11.9574C342.198 12.5729 342.501 13.25 342.662 13.9886H342.776L344.622 2.90909H352.463L347.634 32H339.849L340.446 28.4205H340.276C339.849 29.1591 339.305 29.822 338.642 30.4091C337.989 30.9867 337.236 31.446 336.384 31.7869C335.531 32.1184 334.594 32.2841 333.571 32.2841ZM337.463 26.2614C338.183 26.2614 338.836 26.053 339.423 25.6364C340.01 25.2102 340.508 24.6136 340.915 23.8466C341.322 23.0701 341.611 22.1515 341.781 21.0909C341.961 20.0114 341.975 19.0881 341.824 18.321C341.672 17.5445 341.369 16.9527 340.915 16.5455C340.47 16.1288 339.887 15.9205 339.168 15.9205C338.448 15.9205 337.799 16.1288 337.222 16.5455C336.644 16.9527 336.156 17.5445 335.759 18.321C335.37 19.0881 335.086 20.0114 334.906 21.0909C334.726 22.1705 334.703 23.0985 334.835 23.875C334.977 24.642 335.271 25.2339 335.716 25.6506C336.161 26.0578 336.743 26.2614 337.463 26.2614ZM376.099 10.1818L375.134 15.8636H360.759L361.724 10.1818H376.099ZM365.361 4.95455H373.202L369.878 24.983C369.83 25.286 369.84 25.5417 369.906 25.75C369.973 25.9489 370.105 26.1004 370.304 26.2045C370.512 26.2992 370.787 26.3466 371.128 26.3466C371.355 26.3466 371.634 26.3182 371.966 26.2614C372.297 26.1951 372.548 26.1477 372.719 26.1193L372.946 31.6307C372.548 31.7443 372.013 31.8722 371.341 32.0142C370.678 32.1657 369.906 32.2652 369.026 32.3125C367.188 32.3977 365.692 32.2036 364.537 31.7301C363.391 31.2566 362.596 30.518 362.151 29.5142C361.715 28.5009 361.639 27.2367 361.923 25.7216L365.361 4.95455ZM386.075 19.7273L384.029 32H376.188L381.018 2.90909H388.575L386.7 14.3295H386.927C387.637 12.9375 388.631 11.8532 389.91 11.0767C391.188 10.2907 392.637 9.89773 394.256 9.89773C395.79 9.89773 397.069 10.2481 398.092 10.9489C399.114 11.6496 399.839 12.6155 400.265 13.8466C400.691 15.0777 400.772 16.4886 400.506 18.0795L398.177 32H390.336L392.381 19.7273C392.552 18.6477 392.415 17.8002 391.969 17.1847C391.534 16.5691 390.819 16.2614 389.825 16.2614C389.181 16.2614 388.594 16.4034 388.063 16.6875C387.542 16.9621 387.107 17.3598 386.756 17.8807C386.415 18.392 386.188 19.0076 386.075 19.7273ZM412.388 32.3977C410.059 32.3977 408.127 31.9527 406.593 31.0625C405.059 30.1629 403.979 28.875 403.354 27.1989C402.729 25.5133 402.616 23.4962 403.013 21.1477C403.392 18.8939 404.174 16.9242 405.357 15.2386C406.55 13.553 408.051 12.2415 409.86 11.304C411.678 10.3665 413.714 9.89773 415.968 9.89773C417.616 9.89773 419.06 10.1534 420.3 10.6648C421.55 11.1761 422.568 11.9195 423.354 12.8949C424.14 13.8703 424.671 15.0492 424.945 16.4318C425.229 17.8049 425.229 19.358 424.945 21.0909L424.661 22.9091H405.173L405.854 18.5909H418.127C418.222 17.9659 418.16 17.4167 417.942 16.9432C417.734 16.4602 417.398 16.0862 416.934 15.821C416.479 15.5464 415.93 15.4091 415.286 15.4091C414.642 15.4091 414.036 15.5464 413.468 15.821C412.909 16.0956 412.431 16.4792 412.033 16.9716C411.645 17.464 411.385 18.0417 411.252 18.7045L410.4 23.25C410.286 23.9508 410.329 24.5758 410.528 25.125C410.727 25.6742 411.072 26.1051 411.565 26.4176C412.057 26.7301 412.692 26.8864 413.468 26.8864C413.998 26.8864 414.5 26.8153 414.974 26.6733C415.457 26.5218 415.883 26.304 416.252 26.0199C416.631 25.7263 416.934 25.3712 417.161 24.9545H424.32C423.809 26.4697 422.999 27.786 421.891 28.9034C420.793 30.0114 419.439 30.8731 417.829 31.4886C416.228 32.0947 414.415 32.3977 412.388 32.3977ZM436.27 19.7273L434.224 32H426.384L430.02 10.1818H437.463L436.781 14.3295H437.009C437.7 12.9375 438.708 11.8532 440.034 11.0767C441.369 10.2907 442.842 9.89773 444.452 9.89773C445.995 9.89773 447.278 10.2481 448.301 10.9489C449.324 11.6496 450.048 12.6155 450.474 13.8466C450.901 15.0777 450.976 16.4886 450.702 18.0795L448.372 32H440.531L442.577 19.7273C442.757 18.6477 442.624 17.8002 442.179 17.1847C441.743 16.5691 441.024 16.2614 440.02 16.2614C439.385 16.2614 438.803 16.4034 438.273 16.6875C437.752 16.9621 437.316 17.3598 436.966 17.8807C436.625 18.392 436.393 19.0076 436.27 19.7273ZM468.024 32.2841C466.471 32.2841 465.107 31.8769 463.933 31.0625C462.768 30.2481 461.93 29.0123 461.419 27.3551C460.917 25.6979 460.875 23.6098 461.291 21.0909C461.727 18.4583 462.489 16.3182 463.578 14.6705C464.677 13.0227 465.936 11.8153 467.357 11.0483C468.786 10.2812 470.221 9.89773 471.661 9.89773C472.74 9.89773 473.654 10.0871 474.402 10.4659C475.16 10.8352 475.761 11.3324 476.206 11.9574C476.651 12.5729 476.954 13.25 477.115 13.9886H477.229L479.075 2.90909H486.916L482.087 32H474.303L474.899 28.4205H474.729C474.303 29.1591 473.758 29.822 473.095 30.4091C472.442 30.9867 471.689 31.446 470.837 31.7869C469.984 32.1184 469.047 32.2841 468.024 32.2841ZM471.916 26.2614C472.636 26.2614 473.289 26.053 473.876 25.6364C474.464 25.2102 474.961 24.6136 475.368 23.8466C475.775 23.0701 476.064 22.1515 476.234 21.0909C476.414 20.0114 476.429 19.0881 476.277 18.321C476.125 17.5445 475.822 16.9527 475.368 16.5455C474.923 16.1288 474.34 15.9205 473.621 15.9205C472.901 15.9205 472.252 16.1288 471.675 16.5455C471.097 16.9527 470.609 17.5445 470.212 18.321C469.823 19.0881 469.539 20.0114 469.359 21.0909C469.179 22.1705 469.156 23.0985 469.288 23.875C469.43 24.642 469.724 25.2339 470.169 25.6506C470.614 26.0578 471.196 26.2614 471.916 26.2614ZM496.391 32.3977C494.023 32.3977 492.072 31.929 490.538 30.9915C489.014 30.0445 487.944 28.7282 487.328 27.0426C486.713 25.3475 486.589 23.3826 486.959 21.1477C487.328 18.9129 488.1 16.9527 489.274 15.267C490.448 13.572 491.959 12.2557 493.805 11.3182C495.652 10.3712 497.764 9.89773 500.141 9.89773C502.499 9.89773 504.44 10.3712 505.964 11.3182C507.499 12.2557 508.573 13.572 509.189 15.267C509.814 16.9527 509.942 18.9129 509.572 21.1477C509.203 23.3826 508.427 25.3475 507.243 27.0426C506.059 28.7282 504.544 30.0445 502.697 30.9915C500.86 31.929 498.758 32.3977 496.391 32.3977ZM497.357 26.6023C498.038 26.6023 498.659 26.3797 499.217 25.9347C499.786 25.4896 500.268 24.8551 500.666 24.0312C501.073 23.2074 501.372 22.2273 501.561 21.0909C501.75 19.9451 501.779 18.965 501.646 18.1506C501.514 17.3267 501.239 16.6922 500.822 16.2472C500.406 15.8021 499.857 15.5795 499.175 15.5795C498.493 15.5795 497.868 15.8021 497.3 16.2472C496.732 16.6922 496.249 17.3267 495.851 18.1506C495.453 18.965 495.16 19.9451 494.97 21.0909C494.781 22.2273 494.748 23.2074 494.871 24.0312C495.003 24.8551 495.278 25.4896 495.695 25.9347C496.121 26.3797 496.675 26.6023 497.357 26.6023ZM520.879 19.7273L518.834 32H510.993L514.629 10.1818H522.072L521.391 14.3295H521.618C522.309 12.9375 523.318 11.8532 524.643 11.0767C525.979 10.2907 527.451 9.89773 529.061 9.89773C530.605 9.89773 531.888 10.2481 532.911 10.9489C533.933 11.6496 534.658 12.6155 535.084 13.8466C535.51 15.0777 535.586 16.4886 535.311 18.0795L532.982 32H525.141L527.186 19.7273C527.366 18.6477 527.233 17.8002 526.788 17.1847C526.353 16.5691 525.633 16.2614 524.629 16.2614C523.995 16.2614 523.412 16.4034 522.882 16.6875C522.361 16.9621 521.926 17.3598 521.575 17.8807C521.234 18.392 521.002 19.0076 520.879 19.7273ZM548.102 2.90909L547.534 6.31818C547.383 7.24621 547.042 8.17424 546.511 9.10227C545.981 10.0208 545.366 10.8778 544.665 11.6733C543.964 12.4593 543.273 13.1174 542.591 13.6477L539.58 12C540.081 11.3182 540.569 10.5275 541.043 9.62784C541.516 8.72822 541.862 7.625 542.08 6.31818L542.648 2.90909H548.102ZM564.576 10.1818L563.61 15.8636H549.235L550.201 10.1818H564.576ZM553.837 4.95455H561.678L558.354 24.983C558.307 25.286 558.317 25.5417 558.383 25.75C558.449 25.9489 558.582 26.1004 558.781 26.2045C558.989 26.2992 559.263 26.3466 559.604 26.3466C559.832 26.3466 560.111 26.3182 560.442 26.2614C560.774 26.1951 561.025 26.1477 561.195 26.1193L561.423 31.6307C561.025 31.7443 560.49 31.8722 559.817 32.0142C559.155 32.1657 558.383 32.2652 557.502 32.3125C555.665 32.3977 554.169 32.2036 553.013 31.7301C551.868 31.2566 551.072 30.518 550.627 29.5142C550.192 28.5009 550.116 27.2367 550.4 25.7216L553.837 4.95455ZM579.977 32.2841C578.424 32.2841 577.061 31.8769 575.886 31.0625C574.722 30.2481 573.884 29.0123 573.372 27.3551C572.87 25.6979 572.828 23.6098 573.244 21.0909C573.68 18.4583 574.442 16.3182 575.531 14.6705C576.63 13.0227 577.889 11.8153 579.31 11.0483C580.74 10.2812 582.174 9.89773 583.614 9.89773C584.693 9.89773 585.607 10.0871 586.355 10.4659C587.113 10.8352 587.714 11.3324 588.159 11.9574C588.604 12.5729 588.907 13.25 589.068 13.9886H589.182L591.028 2.90909H598.869L594.04 32H586.256L586.852 28.4205H586.682C586.256 29.1591 585.711 29.822 585.048 30.4091C584.395 30.9867 583.642 31.446 582.79 31.7869C581.938 32.1184 581 32.2841 579.977 32.2841ZM583.869 26.2614C584.589 26.2614 585.242 26.053 585.83 25.6364C586.417 25.2102 586.914 24.6136 587.321 23.8466C587.728 23.0701 588.017 22.1515 588.188 21.0909C588.367 20.0114 588.382 19.0881 588.23 18.321C588.079 17.5445 587.776 16.9527 587.321 16.5455C586.876 16.1288 586.294 15.9205 585.574 15.9205C584.854 15.9205 584.205 16.1288 583.628 16.5455C583.05 16.9527 582.562 17.5445 582.165 18.321C581.777 19.0881 581.492 20.0114 581.312 21.0909C581.133 22.1705 581.109 23.0985 581.241 23.875C581.384 24.642 581.677 25.2339 582.122 25.6506C582.567 26.0578 583.15 26.2614 583.869 26.2614ZM608.344 32.3977C605.976 32.3977 604.026 31.929 602.491 30.9915C600.967 30.0445 599.897 28.7282 599.281 27.0426C598.666 25.3475 598.543 23.3826 598.912 21.1477C599.281 18.9129 600.053 16.9527 601.227 15.267C602.402 13.572 603.912 12.2557 605.759 11.3182C607.605 10.3712 609.717 9.89773 612.094 9.89773C614.452 9.89773 616.393 10.3712 617.918 11.3182C619.452 12.2557 620.527 13.572 621.142 15.267C621.767 16.9527 621.895 18.9129 621.526 21.1477C621.156 23.3826 620.38 25.3475 619.196 27.0426C618.012 28.7282 616.497 30.0445 614.651 30.9915C612.813 31.929 610.711 32.3977 608.344 32.3977ZM609.31 26.6023C609.991 26.6023 610.612 26.3797 611.17 25.9347C611.739 25.4896 612.222 24.8551 612.619 24.0312C613.027 23.2074 613.325 22.2273 613.514 21.0909C613.704 19.9451 613.732 18.965 613.599 18.1506C613.467 17.3267 613.192 16.6922 612.776 16.2472C612.359 15.8021 611.81 15.5795 611.128 15.5795C610.446 15.5795 609.821 15.8021 609.253 16.2472C608.685 16.6922 608.202 17.3267 607.804 18.1506C607.406 18.965 607.113 19.9451 606.923 21.0909C606.734 22.2273 606.701 23.2074 606.824 24.0312C606.956 24.8551 607.231 25.4896 607.648 25.9347C608.074 26.3797 608.628 26.6023 609.31 26.6023ZM630.858 32L634.494 10.1818H642.335L638.699 32H630.858ZM638.756 7.90909C637.695 7.90909 636.838 7.55871 636.185 6.85795C635.531 6.14773 635.29 5.30492 635.46 4.32955C635.631 3.33523 636.152 2.49242 637.023 1.80114C637.894 1.10038 638.86 0.75 639.92 0.75C640.991 0.75 641.843 1.10038 642.477 1.80114C643.112 2.49242 643.348 3.33523 643.188 4.32955C643.036 5.30492 642.525 6.14773 641.653 6.85795C640.792 7.55871 639.826 7.90909 638.756 7.90909ZM659.342 10.1818L658.376 15.8636H644.001L644.967 10.1818H659.342ZM648.603 4.95455H656.444L653.12 24.983C653.073 25.286 653.082 25.5417 653.148 25.75C653.215 25.9489 653.347 26.1004 653.546 26.2045C653.754 26.2992 654.029 26.3466 654.37 26.3466C654.597 26.3466 654.877 26.3182 655.208 26.2614C655.54 26.1951 655.79 26.1477 655.961 26.1193L656.188 31.6307C655.79 31.7443 655.255 31.8722 654.583 32.0142C653.92 32.1657 653.148 32.2652 652.268 32.3125C650.431 32.3977 648.934 32.2036 647.779 31.7301C646.633 31.2566 645.838 30.518 645.393 29.5142C644.957 28.5009 644.881 27.2367 645.165 25.7216L648.603 4.95455ZM667.2 28.0227L666.803 29.6136C666.49 30.9773 666.054 32.2794 665.496 33.5199C664.937 34.7699 664.383 35.8778 663.834 36.8438C663.285 37.8191 662.854 38.572 662.541 39.1023H657.712C657.929 38.6098 658.261 37.8617 658.706 36.858C659.151 35.8542 659.596 34.7178 660.041 33.4489C660.486 32.1799 660.808 30.9015 661.007 29.6136L661.291 28.0227H667.2ZM690.013 2.90909L685.183 32H677.342L682.172 2.90909H690.013ZM689.178 32L692.815 10.1818H700.656L697.019 32H689.178ZM697.076 7.90909C696.015 7.90909 695.158 7.55871 694.505 6.85795C693.852 6.14773 693.61 5.30492 693.781 4.32955C693.951 3.33523 694.472 2.49242 695.343 1.80114C696.214 1.10038 697.18 0.75 698.241 0.75C699.311 0.75 700.163 1.10038 700.798 1.80114C701.432 2.49242 701.669 3.33523 701.508 4.32955C701.356 5.30492 700.845 6.14773 699.974 6.85795C699.112 7.55871 698.146 7.90909 697.076 7.90909ZM708.912 26.8295L710.503 17.5114H711.526L718.06 10.1818H726.866L716.128 21.6023H713.912L708.912 26.8295ZM701.014 32L705.844 2.90909H713.685L708.855 32H701.014ZM714.48 32L710.901 23.3636L716.98 17.7955L723.457 32H714.48ZM734.771 32.3977C732.442 32.3977 730.51 31.9527 728.976 31.0625C727.442 30.1629 726.362 28.875 725.737 27.1989C725.112 25.5133 724.999 23.4962 725.396 21.1477C725.775 18.8939 726.556 16.9242 727.74 15.2386C728.933 13.553 730.434 12.2415 732.243 11.304C734.061 10.3665 736.097 9.89773 738.351 9.89773C739.999 9.89773 741.443 10.1534 742.683 10.6648C743.933 11.1761 744.951 11.9195 745.737 12.8949C746.523 13.8703 747.054 15.0492 747.328 16.4318C747.612 17.8049 747.612 19.358 747.328 21.0909L747.044 22.9091H727.555L728.237 18.5909H740.51C740.605 17.9659 740.543 17.4167 740.325 16.9432C740.117 16.4602 739.781 16.0862 739.317 15.821C738.862 15.5464 738.313 15.4091 737.669 15.4091C737.025 15.4091 736.419 15.5464 735.851 15.821C735.292 16.0956 734.814 16.4792 734.416 16.9716C734.028 17.464 733.768 18.0417 733.635 18.7045L732.783 23.25C732.669 23.9508 732.712 24.5758 732.911 25.125C733.109 25.6742 733.455 26.1051 733.947 26.4176C734.44 26.7301 735.074 26.8864 735.851 26.8864C736.381 26.8864 736.883 26.8153 737.357 26.6733C737.839 26.5218 738.266 26.304 738.635 26.0199C739.014 25.7263 739.317 25.3712 739.544 24.9545H746.703C746.192 26.4697 745.382 27.786 744.274 28.9034C743.176 30.0114 741.821 30.8731 740.212 31.4886C738.611 32.0947 736.798 32.3977 734.771 32.3977ZM760.116 40.1818C759.207 40.1818 758.359 40.1108 757.573 39.9688C756.787 39.8362 756.101 39.6515 755.513 39.4148L758.156 33.8466C758.762 34.0739 759.32 34.2206 759.832 34.2869C760.353 34.3532 760.812 34.3153 761.21 34.1733C761.607 34.0313 761.934 33.7614 762.19 33.3636L762.445 32.9659L758.553 10.1818H766.451L767.445 25.2955H767.673L773.781 10.1818H782.303L770.428 33.8182C769.822 35.0208 769.065 36.1004 768.156 37.0568C767.256 38.0227 766.148 38.785 764.832 39.3438C763.515 39.9025 761.943 40.1818 760.116 40.1818ZM790.688 32.3977C788.32 32.3977 786.369 31.929 784.835 30.9915C783.311 30.0445 782.241 28.7282 781.625 27.0426C781.009 25.3475 780.886 23.3826 781.256 21.1477C781.625 18.9129 782.397 16.9527 783.571 15.267C784.745 13.572 786.256 12.2557 788.102 11.3182C789.949 10.3712 792.061 9.89773 794.438 9.89773C796.795 9.89773 798.737 10.3712 800.261 11.3182C801.795 12.2557 802.87 13.572 803.486 15.267C804.111 16.9527 804.239 18.9129 803.869 21.1477C803.5 23.3826 802.723 25.3475 801.54 27.0426C800.356 28.7282 798.841 30.0445 796.994 30.9915C795.157 31.929 793.055 32.3977 790.688 32.3977ZM791.653 26.6023C792.335 26.6023 792.955 26.3797 793.514 25.9347C794.082 25.4896 794.565 24.8551 794.963 24.0312C795.37 23.2074 795.669 22.2273 795.858 21.0909C796.047 19.9451 796.076 18.965 795.943 18.1506C795.811 17.3267 795.536 16.6922 795.119 16.2472C794.703 15.8021 794.153 15.5795 793.472 15.5795C792.79 15.5795 792.165 15.8021 791.597 16.2472C791.028 16.6922 790.545 17.3267 790.148 18.1506C789.75 18.965 789.456 19.9451 789.267 21.0909C789.078 22.2273 789.045 23.2074 789.168 24.0312C789.3 24.8551 789.575 25.4896 789.991 25.9347C790.418 26.3797 790.972 26.6023 791.653 26.6023ZM820.972 22.4545L823.017 10.1818H830.858L827.222 32H819.778L820.46 27.8523H820.233C819.561 29.2443 818.557 30.3333 817.222 31.1193C815.896 31.8958 814.419 32.2841 812.79 32.2841C811.265 32.2841 809.991 31.9337 808.969 31.233C807.946 30.5322 807.222 29.5663 806.795 28.3352C806.369 27.1042 806.284 25.6932 806.54 24.1023L808.869 10.1818H816.71L814.665 22.4545C814.504 23.5341 814.641 24.3816 815.077 24.9972C815.522 25.6127 816.237 25.9205 817.222 25.9205C817.875 25.9205 818.462 25.7831 818.983 25.5085C819.513 25.2244 819.949 24.8267 820.29 24.3153C820.64 23.7945 820.867 23.1742 820.972 22.4545ZM309.732 80.3409C308.35 80.3409 307.161 80.1136 306.167 79.6591C305.182 79.1951 304.462 78.4943 304.008 77.5568C303.563 76.6098 303.463 75.4167 303.71 73.9773C303.908 72.7841 304.282 71.7661 304.832 70.9233C305.381 70.0805 306.063 69.3892 306.877 68.8494C307.692 68.3097 308.605 67.8977 309.619 67.6136C310.641 67.3201 311.721 67.1307 312.857 67.0455C314.088 66.9508 315.087 66.8324 315.854 66.6903C316.621 66.5483 317.194 66.3542 317.573 66.108C317.952 65.8617 318.179 65.5303 318.255 65.1136V65.0568C318.34 64.4886 318.189 64.053 317.8 63.75C317.422 63.447 316.891 63.2955 316.21 63.2955C315.471 63.2955 314.832 63.4564 314.292 63.7784C313.762 64.1004 313.397 64.6023 313.198 65.2841H305.982C306.285 63.9583 306.906 62.7367 307.843 61.6193C308.79 60.4924 310.045 59.5928 311.607 58.9205C313.179 58.2386 315.054 57.8977 317.232 57.8977C318.785 57.8977 320.149 58.0824 321.323 58.4517C322.497 58.8116 323.468 59.3182 324.235 59.9716C325.012 60.6155 325.556 61.3731 325.869 62.2443C326.191 63.1061 326.266 64.0436 326.096 65.0568L323.596 80H316.266L316.778 76.9318H316.607C316.039 77.7462 315.4 78.4044 314.69 78.9062C313.989 79.4081 313.222 79.7727 312.388 80C311.565 80.2273 310.679 80.3409 309.732 80.3409ZM313.141 75.3977C313.728 75.3977 314.306 75.2746 314.874 75.0284C315.442 74.7822 315.93 74.4271 316.337 73.9631C316.745 73.4991 317.005 72.9356 317.119 72.2727L317.403 70.4545C317.194 70.5398 316.962 70.6203 316.707 70.696C316.46 70.7623 316.2 70.8286 315.925 70.8949C315.66 70.9612 315.376 71.0227 315.073 71.0795C314.78 71.1364 314.477 71.1932 314.164 71.25C313.539 71.3447 313.013 71.5009 312.587 71.7188C312.161 71.9271 311.83 72.1875 311.593 72.5C311.356 72.803 311.21 73.1439 311.153 73.5227C311.067 74.1193 311.205 74.5833 311.565 74.9148C311.934 75.2367 312.46 75.3977 313.141 75.3977ZM340.013 50.9091L335.183 80H327.342L332.172 50.9091H340.013ZM343.042 80L341.224 58.1818H349.065L349.349 71.4773H349.519L354.519 58.1818H362.133L362.815 71.3636H362.985L367.587 58.1818H375.428L366.337 80H357.871L356.735 68.2955H356.508L351.508 80H343.042ZM380.201 80.3409C378.818 80.3409 377.63 80.1136 376.636 79.6591C375.651 79.1951 374.931 78.4943 374.477 77.5568C374.031 76.6098 373.932 75.4167 374.178 73.9773C374.377 72.7841 374.751 71.7661 375.3 70.9233C375.85 70.0805 376.531 69.3892 377.346 68.8494C378.16 68.3097 379.074 67.8977 380.087 67.6136C381.11 67.3201 382.19 67.1307 383.326 67.0455C384.557 66.9508 385.556 66.8324 386.323 66.6903C387.09 66.5483 387.663 66.3542 388.042 66.108C388.421 65.8617 388.648 65.5303 388.724 65.1136V65.0568C388.809 64.4886 388.657 64.053 388.269 63.75C387.89 63.447 387.36 63.2955 386.678 63.2955C385.94 63.2955 385.3 63.4564 384.761 63.7784C384.23 64.1004 383.866 64.6023 383.667 65.2841H376.451C376.754 63.9583 377.374 62.7367 378.312 61.6193C379.259 60.4924 380.513 59.5928 382.076 58.9205C383.648 58.2386 385.523 57.8977 387.701 57.8977C389.254 57.8977 390.618 58.0824 391.792 58.4517C392.966 58.8116 393.937 59.3182 394.704 59.9716C395.48 60.6155 396.025 61.3731 396.337 62.2443C396.659 63.1061 396.735 64.0436 396.565 65.0568L394.065 80H386.735L387.246 76.9318H387.076C386.508 77.7462 385.869 78.4044 385.158 78.9062C384.458 79.4081 383.691 79.7727 382.857 80C382.033 80.2273 381.148 80.3409 380.201 80.3409ZM383.61 75.3977C384.197 75.3977 384.775 75.2746 385.343 75.0284C385.911 74.7822 386.399 74.4271 386.806 73.9631C387.213 73.4991 387.474 72.9356 387.587 72.2727L387.871 70.4545C387.663 70.5398 387.431 70.6203 387.175 70.696C386.929 70.7623 386.669 70.8286 386.394 70.8949C386.129 70.9612 385.845 71.0227 385.542 71.0795C385.248 71.1364 384.945 71.1932 384.633 71.25C384.008 71.3447 383.482 71.5009 383.056 71.7188C382.63 71.9271 382.299 72.1875 382.062 72.5C381.825 72.803 381.678 73.1439 381.621 73.5227C381.536 74.1193 381.674 74.5833 382.033 74.9148C382.403 75.2367 382.928 75.3977 383.61 75.3977ZM400.467 88.1818C399.558 88.1818 398.711 88.1108 397.925 87.9688C397.139 87.8362 396.452 87.6515 395.865 87.4148L398.507 81.8466C399.113 82.0739 399.672 82.2206 400.183 82.2869C400.704 82.3532 401.163 82.3153 401.561 82.1733C401.959 82.0313 402.286 81.7614 402.541 81.3636L402.797 80.9659L398.905 58.1818H406.803L407.797 73.2955H408.024L414.132 58.1818H422.655L410.78 81.8182C410.174 83.0208 409.416 84.1004 408.507 85.0568C407.607 86.0227 406.5 86.785 405.183 87.3438C403.867 87.9025 402.295 88.1818 400.467 88.1818ZM443.578 65.2841H436.533C436.571 64.8295 436.49 64.4413 436.291 64.1193C436.092 63.7973 435.813 63.5511 435.453 63.3807C435.103 63.2102 434.705 63.125 434.26 63.125C433.483 63.125 432.778 63.3002 432.143 63.6506C431.509 63.9915 431.154 64.4413 431.078 65C431.031 65.2178 431.102 65.4214 431.291 65.6108C431.481 65.8002 431.978 65.9754 432.783 66.1364L437.101 66.9318C439.26 67.3295 440.832 68.054 441.817 69.1051C442.811 70.1468 443.171 71.5246 442.896 73.2386C442.641 74.7254 441.987 76.0038 440.936 77.0739C439.885 78.1439 438.55 78.9678 436.93 79.5455C435.321 80.1136 433.54 80.3977 431.589 80.3977C428.152 80.3977 425.576 79.7112 423.862 78.3381C422.158 76.965 421.381 75.1705 421.533 72.9545H429.146C429.165 73.6648 429.402 74.1998 429.857 74.5597C430.321 74.91 430.936 75.0947 431.703 75.1136C432.536 75.142 433.266 74.9763 433.891 74.6165C434.516 74.2472 434.866 73.7879 434.942 73.2386C434.97 72.9261 434.833 72.6894 434.53 72.5284C434.236 72.3674 433.673 72.2064 432.839 72.0455L429.089 71.3636C426.93 70.9754 425.358 70.1989 424.374 69.0341C423.389 67.8598 423.048 66.3636 423.351 64.5455C423.597 63.0966 424.184 61.8797 425.112 60.8949C426.05 59.91 427.281 59.1667 428.805 58.6648C430.33 58.1534 432.091 57.8977 434.089 57.8977C437.357 57.8977 439.828 58.5559 441.504 59.8722C443.19 61.179 443.881 62.983 443.578 65.2841ZM460.602 80.2841C459.049 80.2841 457.686 79.8769 456.511 79.0625C455.347 78.2481 454.509 77.0123 453.997 75.3551C453.495 73.6979 453.453 71.6098 453.869 69.0909C454.305 66.4583 455.067 64.3182 456.156 62.6705C457.255 61.0227 458.514 59.8153 459.935 59.0483C461.365 58.2812 462.799 57.8977 464.239 57.8977C465.318 57.8977 466.232 58.0871 466.98 58.4659C467.738 58.8352 468.339 59.3324 468.784 59.9574C469.229 60.5729 469.532 61.25 469.693 61.9886H469.807L471.653 50.9091H479.494L474.665 80H466.881L467.477 76.4205H467.307C466.881 77.1591 466.336 77.822 465.673 78.4091C465.02 78.9867 464.267 79.446 463.415 79.7869C462.562 80.1184 461.625 80.2841 460.602 80.2841ZM464.494 74.2614C465.214 74.2614 465.867 74.053 466.455 73.6364C467.042 73.2102 467.539 72.6136 467.946 71.8466C468.353 71.0701 468.642 70.1515 468.812 69.0909C468.992 68.0114 469.007 67.0881 468.855 66.321C468.704 65.5445 468.401 64.9527 467.946 64.5455C467.501 64.1288 466.919 63.9205 466.199 63.9205C465.479 63.9205 464.83 64.1288 464.253 64.5455C463.675 64.9527 463.188 65.5445 462.79 66.321C462.402 67.0881 462.117 68.0114 461.938 69.0909C461.758 70.1705 461.734 71.0985 461.866 71.875C462.009 72.642 462.302 73.2339 462.747 73.6506C463.192 74.0578 463.775 74.2614 464.494 74.2614ZM478.514 80L482.151 58.1818H489.991L486.355 80H478.514ZM486.412 55.9091C485.351 55.9091 484.494 55.5587 483.841 54.858C483.188 54.1477 482.946 53.3049 483.116 52.3295C483.287 51.3352 483.808 50.4924 484.679 49.8011C485.55 49.1004 486.516 48.75 487.577 48.75C488.647 48.75 489.499 49.1004 490.134 49.8011C490.768 50.4924 491.005 51.3352 490.844 52.3295C490.692 53.3049 490.181 54.1477 489.31 54.858C488.448 55.5587 487.482 55.9091 486.412 55.9091ZM498.219 80.2841C496.666 80.2841 495.303 79.8769 494.129 79.0625C492.964 78.2481 492.126 77.0123 491.614 75.3551C491.112 73.6979 491.07 71.6098 491.487 69.0909C491.922 66.4583 492.684 64.3182 493.773 62.6705C494.872 61.0227 496.131 59.8153 497.552 59.0483C498.982 58.2812 500.416 57.8977 501.856 57.8977C502.935 57.8977 503.849 58.0871 504.597 58.4659C505.355 58.8352 505.956 59.3324 506.401 59.9574C506.846 60.5729 507.149 61.25 507.31 61.9886H507.424L509.271 50.9091H517.112L512.282 80H504.498L505.094 76.4205H504.924C504.498 77.1591 503.953 77.822 503.29 78.4091C502.637 78.9867 501.884 79.446 501.032 79.7869C500.18 80.1184 499.242 80.2841 498.219 80.2841ZM502.112 74.2614C502.831 74.2614 503.485 74.053 504.072 73.6364C504.659 73.2102 505.156 72.6136 505.563 71.8466C505.97 71.0701 506.259 70.1515 506.43 69.0909C506.61 68.0114 506.624 67.0881 506.472 66.321C506.321 65.5445 506.018 64.9527 505.563 64.5455C505.118 64.1288 504.536 63.9205 503.816 63.9205C503.096 63.9205 502.448 64.1288 501.87 64.5455C501.292 64.9527 500.805 65.5445 500.407 66.321C500.019 67.0881 499.735 68.0114 499.555 69.0909C499.375 70.1705 499.351 71.0985 499.484 71.875C499.626 72.642 499.919 73.2339 500.364 73.6506C500.809 74.0578 501.392 74.2614 502.112 74.2614ZM520.563 80.4545C519.455 80.4545 518.551 80.071 517.85 79.304C517.159 78.5275 516.87 77.5852 516.984 76.4773C517.097 75.3977 517.585 74.4744 518.447 73.7074C519.318 72.9403 520.308 72.5568 521.415 72.5568C522.467 72.5568 523.343 72.9403 524.043 73.7074C524.754 74.4744 525.052 75.3977 524.938 76.4773C524.862 77.2159 524.602 77.8883 524.157 78.4943C523.721 79.0909 523.182 79.5691 522.538 79.929C521.903 80.2794 521.245 80.4545 520.563 80.4545Z" fill="#FFE600"/>
</g>
<defs>
<filter id="filter0_d_0_1" x="0.654114" y="0.75" width="834.204" height="95.4318" filterUnits="userSpaceOnUse" color-interpolation-filters="sRGB">
<feFlood flood-opacity="0" result="BackgroundImageFix"/>
<feColorMatrix in="SourceAlpha" type="matrix" values="0 0 0 0 0 0 0 0 0 0 0 0 0 0 0 0 0 0 127 0" result="hardAlpha"/>
<feOffset dy="4"/>
<feGaussianBlur stdDeviation="2"/>
<feComposite in2="hardAlpha" operator="out"/>
<feColorMatrix type="matrix" values="0 0 0 0 0 0 0 0 0 0 0 0 0 0 0 0 0 0 0.25 0"/>
<feBlend mode="normal" in2="BackgroundImageFix" result="effect1_dropShadow_0_1"/>
<feBlend mode="normal" in="SourceGraphic" in2="effect1_dropShadow_0_1" result="shape"/>
</filter>
</defs>
</svg>
