<svg width="1094" height="234" viewBox="0 0 1094 234" fill="none" xmlns="http://www.w3.org/2000/svg">
<rect width="1094" height="234" fill="#1E1E1E"/>
<path d="M0 8C0 3.58172 3.58172 0 8 0H1086C1090.42 0 1094 3.58172 1094 8V226C1094 230.418 1090.42 234 1086 234H7.99998C3.5817 234 0 230.418 0 226V8Z" fill="#FC0097"/>
<g filter="url(#filter0_d_0_1)">
<mask id="path-2-outside-1_0_1" maskUnits="userSpaceOnUse" x="328" y="69" width="486" height="98" fill="black">
<rect fill="white" x="328" y="69" width="486" height="98"/>
<path d="M329.636 91.2727L333.091 70.9091H414L410.545 91.2727H382.545L370.545 164H345.636L357.636 91.2727H329.636ZM431.75 165.273C424.174 165.273 417.932 163.773 413.023 160.773C408.144 157.742 404.72 153.53 402.75 148.136C400.78 142.712 400.386 136.424 401.568 129.273C402.75 122.121 405.22 115.848 408.977 110.455C412.735 105.03 417.568 100.818 423.477 97.8182C429.386 94.7879 436.144 93.2727 443.75 93.2727C451.295 93.2727 457.508 94.7879 462.386 97.8182C467.295 100.818 470.735 105.03 472.705 110.455C474.705 115.848 475.114 122.121 473.932 129.273C472.75 136.424 470.265 142.712 466.477 148.136C462.689 153.53 457.841 157.742 451.932 160.773C446.053 163.773 439.326 165.273 431.75 165.273ZM434.841 146.727C437.023 146.727 439.008 146.015 440.795 144.591C442.614 143.167 444.159 141.136 445.432 138.5C446.735 135.864 447.689 132.727 448.295 129.091C448.902 125.424 448.992 122.288 448.568 119.682C448.144 117.045 447.265 115.015 445.932 113.591C444.598 112.167 442.841 111.455 440.659 111.455C438.477 111.455 436.477 112.167 434.659 113.591C432.841 115.015 431.295 117.045 430.023 119.682C428.75 122.288 427.811 125.424 427.205 129.091C426.598 132.727 426.492 135.864 426.886 138.5C427.311 141.136 428.189 143.167 429.523 144.591C430.886 146.015 432.659 146.727 434.841 146.727ZM503.477 164.909C498.508 164.909 494.144 163.606 490.386 161C486.659 158.394 483.977 154.439 482.341 149.136C480.735 143.833 480.598 137.152 481.932 129.091C483.326 120.667 485.765 113.818 489.25 108.545C492.765 103.273 496.795 99.4091 501.341 96.9545C505.917 94.5 510.508 93.2727 515.114 93.2727C518.568 93.2727 521.492 93.8788 523.886 95.0909C526.311 96.2727 528.235 97.8636 529.659 99.8636C531.083 101.833 532.053 104 532.568 106.364H532.932L538.841 70.9091H563.932L548.477 164H523.568L525.477 152.545H524.932C523.568 154.909 521.826 157.03 519.705 158.909C517.614 160.758 515.205 162.227 512.477 163.318C509.75 164.379 506.75 164.909 503.477 164.909ZM515.932 145.636C518.235 145.636 520.326 144.97 522.205 143.636C524.083 142.273 525.674 140.364 526.977 137.909C528.28 135.424 529.205 132.485 529.75 129.091C530.326 125.636 530.371 122.682 529.886 120.227C529.402 117.742 528.432 115.848 526.977 114.545C525.553 113.212 523.689 112.545 521.386 112.545C519.083 112.545 517.008 113.212 515.159 114.545C513.311 115.848 511.75 117.742 510.477 120.227C509.235 122.682 508.326 125.636 507.75 129.091C507.174 132.545 507.098 135.515 507.523 138C507.977 140.455 508.917 142.348 510.341 143.682C511.765 144.985 513.629 145.636 515.932 145.636ZM594.25 165.273C586.674 165.273 580.432 163.773 575.523 160.773C570.644 157.742 567.22 153.53 565.25 148.136C563.28 142.712 562.886 136.424 564.068 129.273C565.25 122.121 567.72 115.848 571.477 110.455C575.235 105.03 580.068 100.818 585.977 97.8182C591.886 94.7879 598.644 93.2727 606.25 93.2727C613.795 93.2727 620.008 94.7879 624.886 97.8182C629.795 100.818 633.235 105.03 635.205 110.455C637.205 115.848 637.614 122.121 636.432 129.273C635.25 136.424 632.765 142.712 628.977 148.136C625.189 153.53 620.341 157.742 614.432 160.773C608.553 163.773 601.826 165.273 594.25 165.273ZM597.341 146.727C599.523 146.727 601.508 146.015 603.295 144.591C605.114 143.167 606.659 141.136 607.932 138.5C609.235 135.864 610.189 132.727 610.795 129.091C611.402 125.424 611.492 122.288 611.068 119.682C610.644 117.045 609.765 115.015 608.432 113.591C607.098 112.167 605.341 111.455 603.159 111.455C600.977 111.455 598.977 112.167 597.159 113.591C595.341 115.015 593.795 117.045 592.523 119.682C591.25 122.288 590.311 125.424 589.705 129.091C589.098 132.727 588.992 135.864 589.386 138.5C589.811 141.136 590.689 143.167 592.023 144.591C593.386 146.015 595.159 146.727 597.341 146.727ZM672.614 124.727L666.068 164H640.977L652.614 94.1818H676.432L674.25 107.455H674.977C677.189 103 680.417 99.5303 684.659 97.0455C688.932 94.5303 693.644 93.2727 698.795 93.2727C703.735 93.2727 707.841 94.3939 711.114 96.6364C714.386 98.8788 716.705 101.97 718.068 105.909C719.432 109.848 719.674 114.364 718.795 119.455L711.341 164H686.25L692.795 124.727C693.371 121.273 692.947 118.561 691.523 116.591C690.129 114.621 687.826 113.636 684.614 113.636C682.583 113.636 680.72 114.091 679.023 115C677.356 115.879 675.962 117.152 674.841 118.818C673.75 120.455 673.008 122.424 672.614 124.727ZM759.727 70.9091L757.909 81.8182C757.424 84.7879 756.333 87.7576 754.636 90.7273C752.939 93.6667 750.97 96.4091 748.727 98.9545C746.485 101.47 744.273 103.576 742.091 105.273L732.455 100C734.061 97.8182 735.621 95.2879 737.136 92.4091C738.652 89.5303 739.758 86 740.455 81.8182L742.273 70.9091H759.727ZM812.443 94.1818L809.352 112.364H763.352L766.443 94.1818H812.443ZM778.08 77.4545H803.17L792.534 141.545C792.383 142.515 792.413 143.333 792.625 144C792.837 144.636 793.261 145.121 793.898 145.455C794.564 145.758 795.443 145.909 796.534 145.909C797.261 145.909 798.155 145.818 799.216 145.636C800.277 145.424 801.08 145.273 801.625 145.182L802.352 162.818C801.08 163.182 799.367 163.591 797.216 164.045C795.095 164.53 792.625 164.848 789.807 165C783.928 165.273 779.14 164.652 775.443 163.136C771.777 161.621 769.231 159.258 767.807 156.045C766.413 152.803 766.17 148.758 767.08 143.909L778.08 77.4545Z"/>
</mask>
<path d="M329.636 91.2727L333.091 70.9091H414L410.545 91.2727H382.545L370.545 164H345.636L357.636 91.2727H329.636ZM431.75 165.273C424.174 165.273 417.932 163.773 413.023 160.773C408.144 157.742 404.72 153.53 402.75 148.136C400.78 142.712 400.386 136.424 401.568 129.273C402.75 122.121 405.22 115.848 408.977 110.455C412.735 105.03 417.568 100.818 423.477 97.8182C429.386 94.7879 436.144 93.2727 443.75 93.2727C451.295 93.2727 457.508 94.7879 462.386 97.8182C467.295 100.818 470.735 105.03 472.705 110.455C474.705 115.848 475.114 122.121 473.932 129.273C472.75 136.424 470.265 142.712 466.477 148.136C462.689 153.53 457.841 157.742 451.932 160.773C446.053 163.773 439.326 165.273 431.75 165.273ZM434.841 146.727C437.023 146.727 439.008 146.015 440.795 144.591C442.614 143.167 444.159 141.136 445.432 138.5C446.735 135.864 447.689 132.727 448.295 129.091C448.902 125.424 448.992 122.288 448.568 119.682C448.144 117.045 447.265 115.015 445.932 113.591C444.598 112.167 442.841 111.455 440.659 111.455C438.477 111.455 436.477 112.167 434.659 113.591C432.841 115.015 431.295 117.045 430.023 119.682C428.75 122.288 427.811 125.424 427.205 129.091C426.598 132.727 426.492 135.864 426.886 138.5C427.311 141.136 428.189 143.167 429.523 144.591C430.886 146.015 432.659 146.727 434.841 146.727ZM503.477 164.909C498.508 164.909 494.144 163.606 490.386 161C486.659 158.394 483.977 154.439 482.341 149.136C480.735 143.833 480.598 137.152 481.932 129.091C483.326 120.667 485.765 113.818 489.25 108.545C492.765 103.273 496.795 99.4091 501.341 96.9545C505.917 94.5 510.508 93.2727 515.114 93.2727C518.568 93.2727 521.492 93.8788 523.886 95.0909C526.311 96.2727 528.235 97.8636 529.659 99.8636C531.083 101.833 532.053 104 532.568 106.364H532.932L538.841 70.9091H563.932L548.477 164H523.568L525.477 152.545H524.932C523.568 154.909 521.826 157.03 519.705 158.909C517.614 160.758 515.205 162.227 512.477 163.318C509.75 164.379 506.75 164.909 503.477 164.909ZM515.932 145.636C518.235 145.636 520.326 144.97 522.205 143.636C524.083 142.273 525.674 140.364 526.977 137.909C528.28 135.424 529.205 132.485 529.75 129.091C530.326 125.636 530.371 122.682 529.886 120.227C529.402 117.742 528.432 115.848 526.977 114.545C525.553 113.212 523.689 112.545 521.386 112.545C519.083 112.545 517.008 113.212 515.159 114.545C513.311 115.848 511.75 117.742 510.477 120.227C509.235 122.682 508.326 125.636 507.75 129.091C507.174 132.545 507.098 135.515 507.523 138C507.977 140.455 508.917 142.348 510.341 143.682C511.765 144.985 513.629 145.636 515.932 145.636ZM594.25 165.273C586.674 165.273 580.432 163.773 575.523 160.773C570.644 157.742 567.22 153.53 565.25 148.136C563.28 142.712 562.886 136.424 564.068 129.273C565.25 122.121 567.72 115.848 571.477 110.455C575.235 105.03 580.068 100.818 585.977 97.8182C591.886 94.7879 598.644 93.2727 606.25 93.2727C613.795 93.2727 620.008 94.7879 624.886 97.8182C629.795 100.818 633.235 105.03 635.205 110.455C637.205 115.848 637.614 122.121 636.432 129.273C635.25 136.424 632.765 142.712 628.977 148.136C625.189 153.53 620.341 157.742 614.432 160.773C608.553 163.773 601.826 165.273 594.25 165.273ZM597.341 146.727C599.523 146.727 601.508 146.015 603.295 144.591C605.114 143.167 606.659 141.136 607.932 138.5C609.235 135.864 610.189 132.727 610.795 129.091C611.402 125.424 611.492 122.288 611.068 119.682C610.644 117.045 609.765 115.015 608.432 113.591C607.098 112.167 605.341 111.455 603.159 111.455C600.977 111.455 598.977 112.167 597.159 113.591C595.341 115.015 593.795 117.045 592.523 119.682C591.25 122.288 590.311 125.424 589.705 129.091C589.098 132.727 588.992 135.864 589.386 138.5C589.811 141.136 590.689 143.167 592.023 144.591C593.386 146.015 595.159 146.727 597.341 146.727ZM672.614 124.727L666.068 164H640.977L652.614 94.1818H676.432L674.25 107.455H674.977C677.189 103 680.417 99.5303 684.659 97.0455C688.932 94.5303 693.644 93.2727 698.795 93.2727C703.735 93.2727 707.841 94.3939 711.114 96.6364C714.386 98.8788 716.705 101.97 718.068 105.909C719.432 109.848 719.674 114.364 718.795 119.455L711.341 164H686.25L692.795 124.727C693.371 121.273 692.947 118.561 691.523 116.591C690.129 114.621 687.826 113.636 684.614 113.636C682.583 113.636 680.72 114.091 679.023 115C677.356 115.879 675.962 117.152 674.841 118.818C673.75 120.455 673.008 122.424 672.614 124.727ZM759.727 70.9091L757.909 81.8182C757.424 84.7879 756.333 87.7576 754.636 90.7273C752.939 93.6667 750.97 96.4091 748.727 98.9545C746.485 101.47 744.273 103.576 742.091 105.273L732.455 100C734.061 97.8182 735.621 95.2879 737.136 92.4091C738.652 89.5303 739.758 86 740.455 81.8182L742.273 70.9091H759.727ZM812.443 94.1818L809.352 112.364H763.352L766.443 94.1818H812.443ZM778.08 77.4545H803.17L792.534 141.545C792.383 142.515 792.413 143.333 792.625 144C792.837 144.636 793.261 145.121 793.898 145.455C794.564 145.758 795.443 145.909 796.534 145.909C797.261 145.909 798.155 145.818 799.216 145.636C800.277 145.424 801.08 145.273 801.625 145.182L802.352 162.818C801.08 163.182 799.367 163.591 797.216 164.045C795.095 164.53 792.625 164.848 789.807 165C783.928 165.273 779.14 164.652 775.443 163.136C771.777 161.621 769.231 159.258 767.807 156.045C766.413 152.803 766.17 148.758 767.08 143.909L778.08 77.4545Z" fill="black"/>
<path d="M329.636 91.2727L328.65 91.1055L328.452 92.2727H329.636V91.2727ZM333.091 70.9091V69.9091H332.246L332.105 70.7418L333.091 70.9091ZM414 70.9091L414.986 71.0763L415.184 69.9091H414V70.9091ZM410.545 91.2727V92.2727H411.39L411.531 91.44L410.545 91.2727ZM382.545 91.2727V90.2727H381.697L381.559 91.1099L382.545 91.2727ZM370.545 164V165H371.394L371.532 164.163L370.545 164ZM345.636 164L344.65 163.837L344.458 165H345.636V164ZM357.636 91.2727L358.623 91.4355L358.815 90.2727H357.636V91.2727ZM330.622 91.44L334.077 71.0763L332.105 70.7418L328.65 91.1055L330.622 91.44ZM333.091 71.9091H414V69.9091H333.091V71.9091ZM413.014 70.7418L409.56 91.1055L411.531 91.44L414.986 71.0763L413.014 70.7418ZM410.545 90.2727H382.545V92.2727H410.545V90.2727ZM381.559 91.1099L369.559 163.837L371.532 164.163L383.532 91.4355L381.559 91.1099ZM370.545 163H345.636V165H370.545V163ZM346.623 164.163L358.623 91.4355L356.65 91.1099L344.65 163.837L346.623 164.163ZM357.636 90.2727H329.636V92.2727H357.636V90.2727ZM413.023 160.773L412.495 161.622L412.501 161.626L413.023 160.773ZM402.75 148.136L401.81 148.478L401.811 148.479L402.75 148.136ZM401.568 129.273L402.555 129.436L402.555 129.436L401.568 129.273ZM408.977 110.455L409.798 111.026L409.799 111.024L408.977 110.455ZM423.477 97.8182L423.93 98.7099L423.934 98.708L423.477 97.8182ZM462.386 97.8182L461.859 98.6677L461.865 98.6715L462.386 97.8182ZM472.705 110.455L471.765 110.796L471.767 110.802L472.705 110.455ZM473.932 129.273L474.918 129.436L474.918 129.436L473.932 129.273ZM466.477 148.136L467.296 148.711L467.297 148.709L466.477 148.136ZM451.932 160.773L452.386 161.663L452.388 161.663L451.932 160.773ZM440.795 144.591L440.179 143.804L440.172 143.809L440.795 144.591ZM445.432 138.5L444.535 138.057L444.531 138.065L445.432 138.5ZM448.295 129.091L449.282 129.255L449.282 129.254L448.295 129.091ZM448.568 119.682L447.581 119.841L447.581 119.842L448.568 119.682ZM430.023 119.682L430.921 120.121L430.923 120.117L430.023 119.682ZM427.205 129.091L428.191 129.255L428.191 129.254L427.205 129.091ZM426.886 138.5L425.897 138.648L425.899 138.659L426.886 138.5ZM429.523 144.591L428.793 145.274L428.8 145.282L429.523 144.591ZM431.75 164.273C424.301 164.273 418.254 162.798 413.544 159.919L412.501 161.626C417.61 164.748 424.047 166.273 431.75 166.273V164.273ZM413.55 159.923C408.862 157.011 405.582 152.977 403.689 147.793L401.811 148.479C403.857 154.083 407.426 158.474 412.495 161.622L413.55 159.923ZM403.69 147.795C401.792 142.568 401.394 136.461 402.555 129.436L400.582 129.11C399.379 136.388 399.769 142.856 401.81 148.478L403.69 147.795ZM402.555 129.436C403.715 122.416 406.134 116.286 409.798 111.026L408.157 109.883C404.306 115.411 401.785 121.827 400.582 129.11L402.555 129.436ZM409.799 111.024C413.462 105.737 418.168 101.635 423.93 98.7098L423.025 96.9265C416.968 100.001 412.008 104.324 408.155 109.885L409.799 111.024ZM423.934 98.708C429.682 95.76 436.279 94.2727 443.75 94.2727V92.2727C436.008 92.2727 429.091 93.8158 423.021 96.9284L423.934 98.708ZM443.75 94.2727C451.166 94.2727 457.181 95.7621 461.859 98.6677L462.914 96.9687C457.834 93.8136 451.425 92.2727 443.75 92.2727V94.2727ZM461.865 98.6715C466.58 101.553 469.872 105.584 471.765 110.796L473.644 110.113C471.598 104.477 468.011 100.084 462.908 96.9649L461.865 98.6715ZM471.767 110.802C473.693 115.996 474.106 122.086 472.945 129.11L474.918 129.436C476.121 122.157 475.716 115.701 473.642 110.107L471.767 110.802ZM472.945 129.11C471.785 136.128 469.352 142.273 465.657 147.564L467.297 148.709C471.178 143.151 473.715 136.72 474.918 129.436L472.945 129.11ZM465.659 147.562C461.965 152.822 457.241 156.926 451.476 159.883L452.388 161.663C458.441 158.559 463.414 154.239 467.296 148.711L465.659 147.562ZM451.477 159.882C445.759 162.8 439.191 164.273 431.75 164.273V166.273C439.46 166.273 446.347 164.745 452.386 161.663L451.477 159.882ZM434.841 147.727C437.26 147.727 439.463 146.931 441.419 145.373L440.172 143.809C438.552 145.099 436.785 145.727 434.841 145.727V147.727ZM441.412 145.378C443.378 143.838 445.01 141.673 446.332 138.935L444.531 138.065C443.308 140.6 441.849 142.495 440.179 143.804L441.412 145.378ZM446.328 138.943C447.684 136.2 448.664 132.965 449.282 129.255L447.309 128.927C446.715 132.489 445.786 135.528 444.535 138.057L446.328 138.943ZM449.282 129.254C449.899 125.52 450.002 122.268 449.555 119.521L447.581 119.842C447.982 122.307 447.904 125.328 447.309 128.928L449.282 129.254ZM449.555 119.523C449.111 116.76 448.173 114.522 446.662 112.907L445.202 114.274C446.357 115.509 447.177 117.33 447.581 119.841L449.555 119.523ZM446.662 112.907C445.116 111.256 443.081 110.455 440.659 110.455V112.455C442.6 112.455 444.081 113.077 445.202 114.274L446.662 112.907ZM440.659 110.455C438.24 110.455 436.026 111.25 434.042 112.804L435.276 114.378C436.929 113.083 438.714 112.455 440.659 112.455V110.455ZM434.042 112.804C432.076 114.344 430.444 116.509 429.122 119.247L430.923 120.117C432.147 117.582 433.606 115.686 435.276 114.378L434.042 112.804ZM429.124 119.243C427.799 121.957 426.836 125.191 426.218 128.928L428.191 129.254C428.786 125.658 429.701 122.619 430.921 120.121L429.124 119.243ZM426.218 128.927C425.601 132.63 425.483 135.877 425.897 138.648L427.875 138.352C427.502 135.851 427.596 132.825 428.191 129.255L426.218 128.927ZM425.899 138.659C426.344 141.421 427.282 143.66 428.793 145.274L430.253 143.907C429.097 142.673 428.278 140.851 427.874 138.341L425.899 138.659ZM428.8 145.282C430.374 146.926 432.418 147.727 434.841 147.727V145.727C432.9 145.727 431.399 145.105 430.245 143.899L428.8 145.282ZM490.386 161L489.813 161.82L489.816 161.822L490.386 161ZM482.341 149.136L481.384 149.426L481.385 149.431L482.341 149.136ZM481.932 129.091L480.945 128.928L480.945 128.928L481.932 129.091ZM489.25 108.545L488.418 107.991L488.416 107.994L489.25 108.545ZM501.341 96.9545L500.868 96.0733L500.866 96.0746L501.341 96.9545ZM523.886 95.0909L523.435 95.9831L523.441 95.9865L523.448 95.9898L523.886 95.0909ZM529.659 99.8636L528.845 100.444L528.849 100.45L529.659 99.8636ZM532.568 106.364L531.591 106.577L531.763 107.364H532.568V106.364ZM532.932 106.364V107.364H533.779L533.918 106.528L532.932 106.364ZM538.841 70.9091V69.9091H537.994L537.855 70.7447L538.841 70.9091ZM563.932 70.9091L564.918 71.0729L565.112 69.9091H563.932V70.9091ZM548.477 164V165H549.325L549.464 164.164L548.477 164ZM523.568 164L522.582 163.836L522.388 165H523.568V164ZM525.477 152.545L526.464 152.71L526.658 151.545H525.477V152.545ZM524.932 152.545V151.545H524.354L524.066 152.046L524.932 152.545ZM519.705 158.909L520.367 159.658L520.368 159.658L519.705 158.909ZM512.477 163.318L512.84 164.25L512.849 164.247L512.477 163.318ZM522.205 143.636L522.783 144.452L522.792 144.446L522.205 143.636ZM526.977 137.909L527.861 138.378L527.863 138.374L526.977 137.909ZM529.75 129.091L528.764 128.927L528.763 128.932L529.75 129.091ZM529.886 120.227L528.905 120.419L528.905 120.421L529.886 120.227ZM526.977 114.545L526.294 115.275L526.302 115.283L526.31 115.29L526.977 114.545ZM515.159 114.545L515.735 115.363L515.744 115.356L515.159 114.545ZM510.477 120.227L509.587 119.771L509.585 119.776L510.477 120.227ZM507.75 129.091L506.764 128.927L506.764 128.927L507.75 129.091ZM507.523 138L506.537 138.168L506.539 138.182L507.523 138ZM510.341 143.682L509.657 144.412L509.666 144.42L510.341 143.682ZM503.477 163.909C498.693 163.909 494.532 162.658 490.956 160.178L489.816 161.822C493.756 164.554 498.322 165.909 503.477 165.909V163.909ZM490.959 160.18C487.452 157.728 484.882 153.98 483.296 148.842L481.385 149.431C483.072 154.899 485.866 159.06 489.813 161.82L490.959 160.18ZM483.298 148.847C481.752 143.743 481.599 137.23 482.918 129.254L480.945 128.928C479.598 137.074 479.717 143.924 481.384 149.426L483.298 148.847ZM482.918 129.254C484.297 120.923 486.699 114.219 490.084 109.097L488.416 107.994C484.831 113.418 482.355 120.411 480.945 128.928L482.918 129.254ZM490.082 109.1C493.527 103.933 497.443 100.196 501.816 97.8344L500.866 96.0746C496.148 98.6225 492.003 102.613 488.418 107.991L490.082 109.1ZM501.814 97.8358C506.263 95.4491 510.693 94.2727 515.114 94.2727V92.2727C510.323 92.2727 505.571 93.5509 500.868 96.0733L501.814 97.8358ZM515.114 94.2727C518.455 94.2727 521.215 94.8592 523.435 95.9831L524.338 94.1987C521.77 92.8983 518.681 92.2727 515.114 92.2727V94.2727ZM523.448 95.9898C525.737 97.1058 527.526 98.5928 528.845 100.444L530.474 99.2836C528.943 97.1345 526.884 95.4397 524.325 94.192L523.448 95.9898ZM528.849 100.45C530.193 102.308 531.105 104.348 531.591 106.577L533.545 106.151C533.001 103.652 531.974 101.358 530.469 99.2777L528.849 100.45ZM532.568 107.364H532.932V105.364H532.568V107.364ZM533.918 106.528L539.827 71.0735L537.855 70.7447L531.945 106.199L533.918 106.528ZM538.841 71.9091H563.932V69.9091H538.841V71.9091ZM562.945 70.7453L547.491 163.836L549.464 164.164L564.918 71.0729L562.945 70.7453ZM548.477 163H523.568V165H548.477V163ZM524.555 164.164L526.464 152.71L524.491 152.381L522.582 163.836L524.555 164.164ZM525.477 151.545H524.932V153.545H525.477V151.545ZM524.066 152.046C522.758 154.312 521.085 156.35 519.042 158.161L520.368 159.658C522.566 157.71 524.378 155.506 525.798 153.045L524.066 152.046ZM519.042 158.16C517.042 159.928 514.732 161.339 512.106 162.39L512.849 164.247C515.677 163.115 518.186 161.587 520.367 159.658L519.042 158.16ZM512.115 162.386C509.516 163.397 506.641 163.909 503.477 163.909V165.909C506.859 165.909 509.984 165.361 512.84 164.25L512.115 162.386ZM515.932 146.636C518.442 146.636 520.735 145.905 522.783 144.452L521.626 142.821C519.916 144.034 518.027 144.636 515.932 144.636V146.636ZM522.792 144.446C524.816 142.977 526.5 140.941 527.861 138.378L526.094 137.44C524.848 139.786 523.351 141.569 521.617 142.827L522.792 144.446ZM527.863 138.374C529.226 135.774 530.178 132.727 530.737 129.25L528.763 128.932C528.231 132.243 527.335 135.074 526.092 137.445L527.863 138.374ZM530.736 129.255C531.325 125.726 531.383 122.643 530.867 120.033L528.905 120.421C529.36 122.721 529.327 125.547 528.764 128.927L530.736 129.255ZM530.868 120.036C530.354 117.401 529.304 115.287 527.645 113.801L526.31 115.29C527.56 116.41 528.449 118.084 528.905 120.419L530.868 120.036ZM527.661 113.815C526.018 112.278 523.894 111.545 521.386 111.545V113.545C523.484 113.545 525.088 114.146 526.294 115.275L527.661 113.815ZM521.386 111.545C518.876 111.545 516.595 112.277 514.574 113.734L515.744 115.356C517.42 114.147 519.291 113.545 521.386 113.545V111.545ZM514.583 113.728C512.575 115.144 510.917 117.176 509.587 119.771L511.367 120.683C512.583 118.309 514.047 116.553 515.735 115.363L514.583 113.728ZM509.585 119.776C508.286 122.341 507.352 125.398 506.764 128.927L508.736 129.255C509.3 125.875 510.183 123.022 511.369 120.679L509.585 119.776ZM506.764 128.927C506.176 132.452 506.088 135.54 506.537 138.168L508.508 137.832C508.109 135.491 508.172 132.639 508.736 129.255L506.764 128.927ZM506.539 138.182C507.022 140.788 508.039 142.896 509.657 144.412L511.024 142.952C509.795 141.801 508.933 140.121 508.506 137.818L506.539 138.182ZM509.666 144.42C511.309 145.923 513.43 146.636 515.932 146.636V144.636C513.828 144.636 512.221 144.047 511.016 142.944L509.666 144.42ZM575.523 160.773L574.995 161.622L575.001 161.626L575.523 160.773ZM565.25 148.136L564.31 148.478L564.311 148.479L565.25 148.136ZM564.068 129.273L565.055 129.436L565.055 129.436L564.068 129.273ZM571.477 110.455L572.298 111.026L572.299 111.024L571.477 110.455ZM585.977 97.8182L586.43 98.7099L586.434 98.708L585.977 97.8182ZM624.886 97.8182L624.359 98.6677L624.365 98.6715L624.886 97.8182ZM635.205 110.455L634.265 110.796L634.267 110.802L635.205 110.455ZM636.432 129.273L637.418 129.436L637.418 129.436L636.432 129.273ZM628.977 148.136L629.796 148.711L629.797 148.709L628.977 148.136ZM614.432 160.773L614.886 161.663L614.888 161.663L614.432 160.773ZM603.295 144.591L602.679 143.804L602.672 143.809L603.295 144.591ZM607.932 138.5L607.035 138.057L607.031 138.065L607.932 138.5ZM610.795 129.091L611.782 129.255L611.782 129.254L610.795 129.091ZM611.068 119.682L610.081 119.841L610.081 119.842L611.068 119.682ZM592.523 119.682L593.421 120.121L593.423 120.117L592.523 119.682ZM589.705 129.091L590.691 129.255L590.691 129.254L589.705 129.091ZM589.386 138.5L588.397 138.648L588.399 138.659L589.386 138.5ZM592.023 144.591L591.293 145.274L591.3 145.282L592.023 144.591ZM594.25 164.273C586.801 164.273 580.754 162.798 576.044 159.919L575.001 161.626C580.11 164.748 586.547 166.273 594.25 166.273V164.273ZM576.05 159.923C571.362 157.011 568.082 152.977 566.189 147.793L564.311 148.479C566.357 154.083 569.926 158.474 574.995 161.622L576.05 159.923ZM566.19 147.795C564.292 142.568 563.894 136.461 565.055 129.436L563.082 129.11C561.879 136.388 562.269 142.856 564.31 148.478L566.19 147.795ZM565.055 129.436C566.215 122.416 568.634 116.286 572.298 111.026L570.657 109.883C566.806 115.411 564.285 121.827 563.082 129.11L565.055 129.436ZM572.299 111.024C575.962 105.737 580.668 101.635 586.43 98.7098L585.525 96.9265C579.468 100.001 574.508 104.324 570.655 109.885L572.299 111.024ZM586.434 98.708C592.182 95.76 598.779 94.2727 606.25 94.2727V92.2727C598.508 92.2727 591.591 93.8158 585.521 96.9284L586.434 98.708ZM606.25 94.2727C613.666 94.2727 619.681 95.7621 624.359 98.6677L625.414 96.9687C620.334 93.8136 613.925 92.2727 606.25 92.2727V94.2727ZM624.365 98.6715C629.08 101.553 632.372 105.584 634.265 110.796L636.144 110.113C634.098 104.477 630.511 100.084 625.408 96.9649L624.365 98.6715ZM634.267 110.802C636.193 115.996 636.606 122.086 635.445 129.11L637.418 129.436C638.621 122.157 638.216 115.701 636.142 110.107L634.267 110.802ZM635.445 129.11C634.285 136.128 631.852 142.273 628.157 147.564L629.797 148.709C633.678 143.151 636.215 136.72 637.418 129.436L635.445 129.11ZM628.159 147.562C624.465 152.822 619.741 156.926 613.976 159.883L614.888 161.663C620.941 158.559 625.914 154.239 629.796 148.711L628.159 147.562ZM613.977 159.882C608.259 162.8 601.691 164.273 594.25 164.273V166.273C601.96 166.273 608.847 164.745 614.886 161.663L613.977 159.882ZM597.341 147.727C599.76 147.727 601.963 146.931 603.919 145.373L602.672 143.809C601.052 145.099 599.285 145.727 597.341 145.727V147.727ZM603.912 145.378C605.878 143.838 607.51 141.673 608.832 138.935L607.031 138.065C605.808 140.6 604.349 142.495 602.679 143.804L603.912 145.378ZM608.828 138.943C610.184 136.2 611.164 132.965 611.782 129.255L609.809 128.927C609.215 132.489 608.286 135.528 607.035 138.057L608.828 138.943ZM611.782 129.254C612.399 125.52 612.502 122.268 612.055 119.521L610.081 119.842C610.482 122.307 610.404 125.328 609.809 128.928L611.782 129.254ZM612.055 119.523C611.611 116.76 610.673 114.522 609.162 112.907L607.702 114.274C608.857 115.509 609.677 117.33 610.081 119.841L612.055 119.523ZM609.162 112.907C607.616 111.256 605.581 110.455 603.159 110.455V112.455C605.1 112.455 606.581 113.077 607.702 114.274L609.162 112.907ZM603.159 110.455C600.74 110.455 598.526 111.25 596.542 112.804L597.776 114.378C599.429 113.083 601.214 112.455 603.159 112.455V110.455ZM596.542 112.804C594.576 114.344 592.944 116.509 591.622 119.247L593.423 120.117C594.647 117.582 596.106 115.686 597.776 114.378L596.542 112.804ZM591.624 119.243C590.299 121.957 589.336 125.191 588.718 128.928L590.691 129.254C591.286 125.658 592.201 122.619 593.421 120.121L591.624 119.243ZM588.718 128.927C588.101 132.63 587.983 135.877 588.397 138.648L590.375 138.352C590.002 135.851 590.096 132.825 590.691 129.255L588.718 128.927ZM588.399 138.659C588.844 141.421 589.782 143.66 591.293 145.274L592.753 143.907C591.597 142.673 590.778 140.851 590.374 138.341L588.399 138.659ZM591.3 145.282C592.874 146.926 594.918 147.727 597.341 147.727V145.727C595.4 145.727 593.899 145.105 592.745 143.899L591.3 145.282ZM672.614 124.727L671.628 124.559L671.627 124.563L672.614 124.727ZM666.068 164V165H666.915L667.055 164.164L666.068 164ZM640.977 164L639.991 163.836L639.797 165H640.977V164ZM652.614 94.1818V93.1818H651.767L651.627 94.0174L652.614 94.1818ZM676.432 94.1818L677.419 94.344L677.61 93.1818H676.432V94.1818ZM674.25 107.455L673.263 107.292L673.072 108.455H674.25V107.455ZM674.977 107.455V108.455H675.597L675.873 107.899L674.977 107.455ZM684.659 97.0455L685.164 97.9083L685.166 97.9072L684.659 97.0455ZM711.114 96.6364L711.679 95.8114L711.679 95.8114L711.114 96.6364ZM718.068 105.909L719.013 105.582L719.013 105.582L718.068 105.909ZM718.795 119.455L717.81 119.284L717.809 119.289L718.795 119.455ZM711.341 164V165H712.187L712.327 164.165L711.341 164ZM686.25 164L685.264 163.836L685.07 165H686.25V164ZM692.795 124.727L693.782 124.892L693.782 124.892L692.795 124.727ZM691.523 116.591L690.706 117.169L690.712 117.177L691.523 116.591ZM679.023 115L679.489 115.885L679.495 115.881L679.023 115ZM674.841 118.818L674.011 118.26L674.009 118.263L674.841 118.818ZM671.627 124.563L665.082 163.836L667.055 164.164L673.6 124.892L671.627 124.563ZM666.068 163H640.977V165H666.068V163ZM641.964 164.164L653.6 94.3462L651.627 94.0174L639.991 163.836L641.964 164.164ZM652.614 95.1818H676.432V93.1818H652.614V95.1818ZM675.445 94.0196L673.263 107.292L675.237 107.617L677.419 94.344L675.445 94.0196ZM674.25 108.455H674.977V106.455H674.25V108.455ZM675.873 107.899C678 103.617 681.092 100.294 685.164 97.9083L684.154 96.1826C679.741 98.767 676.379 102.383 674.082 107.01L675.873 107.899ZM685.166 97.9072C689.279 95.4862 693.815 94.2727 698.795 94.2727V92.2727C693.473 92.2727 688.584 93.5744 684.152 96.1837L685.166 97.9072ZM698.795 94.2727C703.583 94.2727 707.479 95.3581 710.548 97.4613L711.679 95.8114C708.203 93.4298 703.887 92.2727 698.795 92.2727V94.2727ZM710.548 97.4613C713.635 99.5763 715.826 102.488 717.123 106.236L719.013 105.582C717.583 101.451 715.138 98.1813 711.679 95.8114L710.548 97.4613ZM717.123 106.236C718.42 109.982 718.667 114.321 717.81 119.284L719.781 119.625C720.682 114.407 720.444 109.715 719.013 105.582L717.123 106.236ZM717.809 119.289L710.355 163.835L712.327 164.165L719.782 119.62L717.809 119.289ZM711.341 163H686.25V165H711.341V163ZM687.236 164.164L693.782 124.892L691.809 124.563L685.264 163.836L687.236 164.164ZM693.782 124.892C694.382 121.29 693.972 118.271 692.333 116.005L690.712 117.177C691.922 118.85 692.36 121.255 691.809 124.563L693.782 124.892ZM692.339 116.013C690.699 113.695 688.032 112.636 684.614 112.636V114.636C687.619 114.636 689.559 115.547 690.706 117.169L692.339 116.013ZM684.614 112.636C682.428 112.636 680.401 113.127 678.551 114.119L679.495 115.881C681.039 115.054 682.739 114.636 684.614 114.636V112.636ZM678.556 114.115C676.734 115.076 675.218 116.466 674.011 118.26L675.671 119.376C676.706 117.838 677.978 116.681 679.489 115.885L678.556 114.115ZM674.009 118.263C672.827 120.036 672.041 122.143 671.628 124.559L673.599 124.896C673.974 122.705 674.673 120.873 675.673 119.373L674.009 118.263ZM759.727 70.9091L760.714 71.0735L760.908 69.9091H759.727V70.9091ZM757.909 81.8182L756.923 81.6538L756.922 81.657L757.909 81.8182ZM754.636 90.7273L755.502 91.2273L755.505 91.2234L754.636 90.7273ZM748.727 98.9545L749.474 99.62L749.478 99.6156L748.727 98.9545ZM742.091 105.273L741.611 106.15L742.187 106.465L742.705 106.062L742.091 105.273ZM732.455 100L731.649 99.4072L730.971 100.328L731.975 100.877L732.455 100ZM737.136 92.4091L736.251 91.9433L736.251 91.9433L737.136 92.4091ZM740.455 81.8182L739.468 81.6538L739.468 81.6538L740.455 81.8182ZM742.273 70.9091V69.9091H741.426L741.286 70.7447L742.273 70.9091ZM758.741 70.7447L756.923 81.6538L758.895 81.9826L760.714 71.0735L758.741 70.7447ZM756.922 81.657C756.459 84.4939 755.414 87.3511 753.768 90.2311L755.505 91.2234C757.253 88.1641 758.389 85.0818 758.896 81.9793L756.922 81.657ZM753.77 90.2273C752.106 93.1093 750.176 95.7978 747.977 98.2935L749.478 99.6156C751.764 97.0204 753.772 94.224 755.502 91.2273L753.77 90.2273ZM747.981 98.2891C745.77 100.768 743.602 102.831 741.477 104.483L742.705 106.062C744.944 104.321 747.199 102.171 749.474 99.62L747.981 98.2891ZM742.571 104.395L732.935 99.1227L731.975 100.877L741.611 106.15L742.571 104.395ZM733.26 100.593C734.901 98.3636 736.487 95.7894 738.021 92.8748L736.251 91.9433C734.755 94.7863 733.22 97.2727 731.649 99.4072L733.26 100.593ZM738.021 92.8748C739.599 89.878 740.731 86.2395 741.441 81.9826L739.468 81.6538C738.784 85.7605 737.704 89.1826 736.251 91.9433L738.021 92.8748ZM741.441 81.9826L743.259 71.0735L741.286 70.7447L739.468 81.6538L741.441 81.9826ZM742.273 71.9091H759.727V69.9091H742.273V71.9091ZM812.443 94.1818L813.429 94.3494L813.628 93.1818H812.443V94.1818ZM809.352 112.364V113.364H810.197L810.338 112.531L809.352 112.364ZM763.352 112.364L762.366 112.196L762.168 113.364H763.352V112.364ZM766.443 94.1818V93.1818H765.599L765.457 94.0142L766.443 94.1818ZM778.08 77.4545V76.4545H777.231L777.093 77.2912L778.08 77.4545ZM803.17 77.4545L804.157 77.6183L804.35 76.4545H803.17V77.4545ZM792.534 141.545L791.548 141.382L791.546 141.391L792.534 141.545ZM792.625 144L791.672 144.303L791.676 144.316L792.625 144ZM793.898 145.455L793.434 146.34L793.458 146.353L793.484 146.365L793.898 145.455ZM799.216 145.636L799.385 146.622L799.398 146.62L799.412 146.617L799.216 145.636ZM801.625 145.182L802.624 145.141L802.577 144.009L801.461 144.195L801.625 145.182ZM802.352 162.818L802.627 163.78L803.384 163.563L803.351 162.777L802.352 162.818ZM797.216 164.045L797.009 163.067L797.001 163.069L796.993 163.071L797.216 164.045ZM789.807 165L789.853 165.999L789.861 165.999L789.807 165ZM775.443 163.136L775.061 164.061L775.064 164.062L775.443 163.136ZM767.807 156.045L766.888 156.44L766.893 156.451L767.807 156.045ZM767.08 143.909L768.062 144.093L768.064 144.083L768.066 144.072L767.08 143.909ZM811.457 94.0142L808.366 112.196L810.338 112.531L813.429 94.3494L811.457 94.0142ZM809.352 111.364H763.352V113.364H809.352V111.364ZM764.338 112.531L767.429 94.3494L765.457 94.0142L762.366 112.196L764.338 112.531ZM766.443 95.1818H812.443V93.1818H766.443V95.1818ZM778.08 78.4545H803.17V76.4545H778.08V78.4545ZM802.184 77.2908L791.548 141.382L793.521 141.709L804.157 77.6183L802.184 77.2908ZM791.546 141.391C791.38 142.456 791.398 143.442 791.672 144.303L793.578 143.697C793.428 143.225 793.385 142.574 793.522 141.7L791.546 141.391ZM791.676 144.316C791.976 145.217 792.586 145.896 793.434 146.34L794.362 144.569C793.937 144.346 793.698 144.056 793.574 143.684L791.676 144.316ZM793.484 146.365C794.328 146.749 795.364 146.909 796.534 146.909V144.909C795.522 144.909 794.801 144.766 794.312 144.544L793.484 146.365ZM796.534 146.909C797.338 146.909 798.292 146.809 799.385 146.622L799.047 144.651C798.018 144.827 797.185 144.909 796.534 144.909V146.909ZM799.412 146.617C800.47 146.405 801.26 146.256 801.789 146.168L801.461 144.195C800.899 144.289 800.083 144.443 799.02 144.656L799.412 146.617ZM800.626 145.223L801.353 162.859L803.351 162.777L802.624 145.141L800.626 145.223ZM802.078 161.857C800.837 162.211 799.151 162.615 797.009 163.067L797.423 165.024C799.584 164.567 801.322 164.153 802.627 163.78L802.078 161.857ZM796.993 163.071C794.941 163.54 792.53 163.852 789.753 164.001L789.861 165.999C792.72 165.845 795.248 165.521 797.439 165.02L796.993 163.071ZM789.76 164.001C783.964 164.27 779.336 163.651 775.822 162.211L775.064 164.062C778.944 165.652 783.892 166.275 789.853 165.999L789.76 164.001ZM775.825 162.212C772.363 160.781 770.027 158.586 768.721 155.64L766.893 156.451C768.435 159.929 771.19 162.461 775.061 164.061L775.825 162.212ZM768.726 155.65C767.435 152.65 767.176 148.822 768.062 144.093L766.097 143.725C765.165 148.694 765.39 152.956 766.888 156.44L768.726 155.65ZM768.066 144.072L779.066 77.6178L777.093 77.2912L766.093 143.746L768.066 144.072Z" fill="#0A0909" mask="url(#path-2-outside-1_0_1)"/>
</g>
<defs>
<filter id="filter0_d_0_1" x="325.636" y="70.9091" width="490.807" height="102.5" filterUnits="userSpaceOnUse" color-interpolation-filters="sRGB">
<feFlood flood-opacity="0" result="BackgroundImageFix"/>
<feColorMatrix in="SourceAlpha" type="matrix" values="0 0 0 0 0 0 0 0 0 0 0 0 0 0 0 0 0 0 127 0" result="hardAlpha"/>
<feOffset dy="4"/>
<feGaussianBlur stdDeviation="2"/>
<feComposite in2="hardAlpha" operator="out"/>
<feColorMatrix type="matrix" values="0 0 0 0 0 0 0 0 0 0 0 0 0 0 0 0 0 0 0.25 0"/>
<feBlend mode="normal" in2="BackgroundImageFix" result="effect1_dropShadow_0_1"/>
<feBlend mode="normal" in="SourceGraphic" in2="effect1_dropShadow_0_1" result="shape"/>
</filter>
</defs>
</svg>
